<?xml version="1.0" encoding="UTF-8" standalone="no"?>
<!-- Generator: Adobe Adobe Illustrator 24.2.0, SVG Export Plug-In . SVG Version: 6.00 Build 0)  -->

<svg
   version="1.1"
   x="0px"
   y="0px"
   width="396.00687"
   height="452.16772"
   viewBox="0 0 396.00687 452.16773"
   xml:space="preserve"
   id="svg275"
   sodipodi:docname="pyroll-bird-mono.svg"
   inkscape:version="1.3.2 (091e20ef0f, 2023-11-25, custom)"
   inkscape:export-filename="pyroll-bird.png"
   inkscape:export-xdpi="300"
   inkscape:export-ydpi="300"
   xmlns:inkscape="http://www.inkscape.org/namespaces/inkscape"
   xmlns:sodipodi="http://sodipodi.sourceforge.net/DTD/sodipodi-0.dtd"
   xmlns="http://www.w3.org/2000/svg"
   xmlns:svg="http://www.w3.org/2000/svg"><defs
   id="defs279"><rect
   x="258.78879"
   y="437.39072"
   width="103.55372"
   height="80.393494"
   id="rect4194" />
	

						
						
						
						
						
						
						
						
						
						
						
						
						
							
						
						
						
							
						
						
						
						
						
						
						
						
						
						
						
						
						
						
						
						
						
						
						
						
						
						
						
						
						
						
						
						
						
						
						
						
						
						
						
						
						
						
						
						
						
						
						
						
						
						
						
						
						
						
						
						
						
						
						
						
						
						
						
						
						
						
						
						
						
						
						
						
						
						
						
						
						
						
						
						
						
						
						
						
						
						
						
						
						
						
						
						
						
						
						
						
						
						
						
						
						
						
						
						
						
						
						
						
						
						
						
						
						
						
					
		
	</defs><sodipodi:namedview
   id="namedview277"
   pagecolor="#7f7f7f"
   bordercolor="#666666"
   borderopacity="1.0"
   inkscape:showpageshadow="2"
   inkscape:pageopacity="0"
   inkscape:pagecheckerboard="true"
   inkscape:deskcolor="#d1d1d1"
   showgrid="false"
   inkscape:zoom="1.4142136"
   inkscape:cx="-45.254833"
   inkscape:cy="162.63456"
   inkscape:window-width="3840"
   inkscape:window-height="2092"
   inkscape:window-x="0"
   inkscape:window-y="32"
   inkscape:window-maximized="1"
   inkscape:current-layer="layer3" />
<style
   type="text/css"
   id="style2">
	.st0{fill:#303030;}
	.st1{fill:#FFDD00;}
	.st2{fill:#FFFFFF;stroke:#FFDD00;stroke-miterlimit:10;}
	.st3{fill:#CFBA00;}
	.st4{fill:#FFE600;}
	.st5{fill:#4F4F4E;}
	.st6{fill:#D4691E;}
	.st7{fill:#D4851E;}
	.st8{fill:#BD7100;}
	.st9{fill:#FFFFFF;}
	.st10{stroke:#000000;stroke-miterlimit:10;}
	.st11{fill:#303030;stroke:#FFFFFF;stroke-width:2;stroke-miterlimit:10;}
	.st12{fill:none;}
	.st13{fill:url(#SVGID_1_);stroke:#404040;stroke-miterlimit:10;}
	.st14{fill:url(#SVGID_2_);stroke:#404040;stroke-miterlimit:10;}
	.st15{fill:url(#SVGID_3_);stroke:#404040;stroke-miterlimit:10;}
	.st16{fill:url(#SVGID_4_);stroke:#404040;stroke-miterlimit:10;}
	.st17{fill:url(#SVGID_5_);stroke:#404040;stroke-miterlimit:10;}
	.st18{fill:url(#SVGID_6_);stroke:#404040;stroke-miterlimit:10;}
	.st19{fill:url(#SVGID_7_);stroke:#404040;stroke-miterlimit:10;}
	.st20{fill:url(#SVGID_8_);stroke:#404040;stroke-miterlimit:10;}
	.st21{fill:url(#SVGID_9_);stroke:#404040;stroke-miterlimit:10;}
	.st22{fill:url(#SVGID_10_);stroke:#404040;stroke-miterlimit:10;}
	.st23{fill:url(#SVGID_11_);stroke:#404040;stroke-miterlimit:10;}
	.st24{fill:url(#SVGID_12_);stroke:#404040;stroke-miterlimit:10;}
	.st25{fill:url(#SVGID_13_);stroke:#404040;stroke-miterlimit:10;}
	.st26{fill:url(#SVGID_14_);stroke:#404040;stroke-miterlimit:10;}
	.st27{fill:url(#SVGID_15_);stroke:#404040;stroke-miterlimit:10;}
	.st28{fill:url(#SVGID_16_);stroke:#404040;stroke-miterlimit:10;}
	.st29{fill:url(#SVGID_17_);stroke:#404040;stroke-miterlimit:10;}
	.st30{fill:url(#SVGID_18_);stroke:#404040;stroke-miterlimit:10;}
	.st31{fill:url(#SVGID_19_);stroke:#404040;stroke-miterlimit:10;}
	.st32{fill:url(#SVGID_20_);stroke:#404040;stroke-miterlimit:10;}
	.st33{fill:url(#SVGID_21_);stroke:#404040;stroke-miterlimit:10;}
	.st34{fill:url(#SVGID_22_);stroke:#404040;stroke-miterlimit:10;}
	.st35{fill:url(#SVGID_23_);stroke:#404040;stroke-miterlimit:10;}
	.st36{fill:url(#SVGID_24_);stroke:#404040;stroke-miterlimit:10;}
	.st37{fill:url(#SVGID_25_);stroke:#404040;stroke-miterlimit:10;}
	.st38{fill:url(#SVGID_26_);stroke:#404040;stroke-miterlimit:10;}
	.st39{fill:url(#SVGID_27_);stroke:#404040;stroke-miterlimit:10;}
	.st40{fill:url(#SVGID_28_);stroke:#404040;stroke-miterlimit:10;}
	.st41{fill:url(#SVGID_29_);stroke:#404040;stroke-miterlimit:10;}
	.st42{fill:url(#SVGID_30_);stroke:#404040;stroke-miterlimit:10;}
	.st43{fill:url(#SVGID_31_);stroke:#404040;stroke-miterlimit:10;}
	.st44{fill:url(#SVGID_32_);stroke:#404040;stroke-miterlimit:10;}
	.st45{fill:url(#SVGID_33_);stroke:#404040;stroke-miterlimit:10;}
	.st46{fill:url(#SVGID_34_);stroke:#404040;stroke-miterlimit:10;}
	.st47{fill:url(#SVGID_35_);stroke:#404040;stroke-miterlimit:10;}
	.st48{fill:url(#SVGID_36_);stroke:#404040;stroke-miterlimit:10;}
	.st49{fill:url(#SVGID_37_);stroke:#404040;stroke-miterlimit:10;}
	.st50{fill:url(#SVGID_38_);stroke:#404040;stroke-miterlimit:10;}
	.st51{fill:url(#SVGID_39_);stroke:#404040;stroke-miterlimit:10;}
	.st52{fill:url(#SVGID_40_);stroke:#404040;stroke-miterlimit:10;}
	.st53{fill:url(#SVGID_41_);stroke:#404040;stroke-miterlimit:10;}
	.st54{fill:url(#SVGID_42_);stroke:#404040;stroke-miterlimit:10;}
	.st55{fill:url(#SVGID_43_);stroke:#404040;stroke-miterlimit:10;}
	.st56{fill:url(#SVGID_44_);stroke:#404040;stroke-miterlimit:10;}
	.st57{fill:url(#SVGID_45_);stroke:#404040;stroke-miterlimit:10;}
	.st58{fill:url(#SVGID_46_);stroke:#404040;stroke-miterlimit:10;}
	.st59{fill:url(#SVGID_47_);stroke:#404040;stroke-miterlimit:10;}
	.st60{fill:url(#SVGID_48_);stroke:#404040;stroke-miterlimit:10;}
	.st61{fill:url(#SVGID_49_);stroke:#404040;stroke-miterlimit:10;}
	.st62{fill:url(#SVGID_50_);stroke:#404040;stroke-miterlimit:10;}
	.st63{fill:url(#SVGID_51_);stroke:#404040;stroke-miterlimit:10;}
	.st64{fill:url(#SVGID_52_);stroke:#404040;stroke-miterlimit:10;}
	.st65{fill:url(#SVGID_53_);stroke:#404040;stroke-miterlimit:10;}
	.st66{fill:url(#SVGID_54_);stroke:#404040;stroke-miterlimit:10;}
	.st67{fill:url(#SVGID_55_);stroke:#404040;stroke-miterlimit:10;}
	.st68{fill:url(#SVGID_56_);stroke:#404040;stroke-miterlimit:10;}
	.st69{fill:url(#SVGID_57_);stroke:#404040;stroke-miterlimit:10;}
	.st70{fill:url(#SVGID_58_);stroke:#404040;stroke-miterlimit:10;}
	.st71{fill:url(#SVGID_59_);stroke:#404040;stroke-miterlimit:10;}
	.st72{fill:url(#SVGID_60_);stroke:#404040;stroke-miterlimit:10;}
	.st73{fill:url(#SVGID_61_);stroke:#404040;stroke-miterlimit:10;}
	.st74{fill:url(#SVGID_62_);stroke:#404040;stroke-miterlimit:10;}
	.st75{fill:#4D4D4D;}
	.st76{fill:#4C4C4C;}
	.st77{fill:#4A4A4A;}
	.st78{fill:#494949;}
	.st79{fill:#484848;}
	.st80{fill:#474747;}
	.st81{fill:#454545;}
	.st82{fill:#444444;}
	.st83{fill:#434343;}
	.st84{fill:#424242;}
	.st85{fill:#404040;}
	.st86{fill:#3F3F3F;}
	.st87{fill:#3E3E3E;}
	.st88{fill:#3D3D3D;}
	.st89{fill:#3B3B3B;}
	.st90{fill:#3A3A3A;}
	.st91{fill:#393939;}
	.st92{fill:#383838;}
	.st93{fill:#363636;}
	.st94{fill:#353535;}
	.st95{fill:#343434;}
	.st96{fill:#323232;}
	.st97{fill:#313131;}
	.st98{fill:#2F2F2F;}
	.st99{fill:#2D2D2D;}
	.st100{fill:#2C2C2C;}
	.st101{fill:#2B2B2B;}
	.st102{fill:#2A2A2A;}
	.st103{fill:#282828;}
	.st104{fill:#272727;}
	.st105{fill:#262626;}
	.st106{fill:#252525;}
	.st107{fill:#232323;}
	.st108{fill:#222222;}
	.st109{fill:#212121;}
	.st110{fill:#202020;}
	.st111{fill:#1E1E1E;}
	.st112{fill:#1D1D1D;}
	.st113{fill:#1C1C1C;}
	.st114{fill:#1B1B1B;}
	.st115{fill:#191919;}
	.st116{fill:#181818;}
	.st117{fill:#171717;}
	.st118{fill:#151515;}
	.st119{fill:#141414;}
	.st120{fill:#131313;}
	.st121{fill:#121212;}
	.st122{fill:#101010;}
	.st123{fill:#0F0F0F;}
	.st124{fill:#0E0E0E;}
	.st125{fill:#0D0D0D;}
	.st126{fill:#0B0B0B;}
	.st127{fill:#0A0A0A;}
	.st128{fill:#090909;}
	.st129{fill:#080808;}
	.st130{fill:#060606;}
	.st131{fill:#050505;}
	.st132{fill:#040404;}
	.st133{fill:#030303;}
	.st134{fill:#010101;}
	.st135{fill:#D4D4D4;}
	.st136{fill:#FFFFFF;stroke:#D4D4D4;stroke-miterlimit:10;}
	.st137{fill:#DEDEDE;}
	.st138{fill:#FFFFFF;stroke:#DEDEDE;stroke-miterlimit:10;}
	.st139{fill:#8F8F8F;}
	.st140{fill:#A1A1A1;}
	.st141{fill:#FFFFFF;stroke:#FFDD00;stroke-width:0.6124;stroke-miterlimit:10;}
	.st142{fill:#FFFFFF;stroke:#FFDD00;stroke-width:0.3896;stroke-miterlimit:10;}
	.st143{stroke:#000000;stroke-width:3.5702;stroke-miterlimit:10;}
</style>









<g
   inkscape:groupmode="layer"
   id="layer1"
   inkscape:label="body"
   transform="translate(-11.820588,-70.401636)"><path
     id="path7"
     style="fill:#ffffff;fill-opacity:1;stroke:none;stroke-width:0;stroke-linecap:butt;stroke-linejoin:miter;stroke-dasharray:none;stroke-opacity:1"
     d="m 286.63799,70.407155 c -13.51184,-0.1649 -25.78727,3.371728 -32.81445,9.761718 -27.90173,25.371677 -31.68277,65.512417 -30.44532,101.720707 18.99613,1.89473 61.51244,18.83527 65.03711,52.02148 8.59931,80.96563 -125.90422,160.54525 -207.808592,207.3125 -1.534044,-14.54505 1.461838,-30.66557 6.71875,-42.26758 l -70.044922,21.25 c -16.73088251,5.07555 9.048023,66.42926 22.935547,57.41211 L 98.65752,439.67278 c 18.68633,-3.0997 36.68462,-7.63512 53.73437,-13.58984 0.4786,7.23413 2.72947,13.19621 7.79493,16.01757 l 23.15234,45.66797 c -5.93547,1.22984 -11.77241,2.53723 -15.37695,3.4375 -6.26992,1.56599 -3.02945,2.90156 1.01367,2.85547 3.11705,-0.0355 10.87552,-0.19734 15.73828,-0.61523 10.65763,8.04669 18.52292,18.70409 25.83203,26.0664 7.22093,7.27352 7.4788,-0.0963 3.00781,-4.91797 -7.0757,-7.63063 -12.8181,-14.67543 -18.97265,-20.48828 12.43755,4.19176 25.83372,12.25293 32.71484,16.16016 6.91525,3.92662 5.48673,-1.7635 -1.67969,-6.46484 -7.65122,-5.01948 -16.90126,-9.60627 -25.92773,-13.22461 12.15082,-0.97065 24.61243,0.0632 32.6875,0.97461 7.63419,0.86166 12.0931,-0.57862 -0.45313,-4.11719 -14.31517,-4.03757 -29.93375,-2.31869 -38.98046,-0.62891 l -18.31836,-49.1914 c 8.00607,-5.43762 16.0108,-16.46096 21.16015,-28.375 1.22469,3.75438 3.28802,6.744 6.45117,8.50586 l 23.1504,45.66796 c -5.93551,1.22984 -11.77046,2.53723 -15.375,3.4375 -6.26993,1.56599 -3.02945,2.90156 1.01367,2.85547 3.11701,-0.0355 10.87549,-0.19734 15.73828,-0.61523 10.65763,8.04669 18.52291,18.70409 25.83203,26.0664 7.22092,7.27352 7.47879,-0.0963 3.00781,-4.91796 -7.0757,-7.63067 -12.81809,-14.67739 -18.97265,-20.49024 12.43751,4.19176 25.83373,12.25488 32.71484,16.16211 6.91526,3.92662 5.48669,-1.7635 -1.67969,-6.46484 -7.65123,-5.01948 -16.90126,-9.60627 -25.92773,-13.22461 12.15082,-0.97065 24.61243,0.0632 32.6875,0.97461 7.63419,0.86166 12.09115,-0.57858 -0.45508,-4.11719 -14.31521,-4.03757 -29.93181,-2.31865 -38.97852,-0.62891 l -18.31836,-49.1914 c 10.72559,-7.28547 21.45473,-24.59299 25.3086,-40.64063 39.93223,-38.51984 63.21132,-92.15657 59.73437,-160.1875 -0.31608,-6.18442 1.42798,-10.9587 5.66993,-14.43164 8.80657,-4.55879 19.73075,-11.3055 27.4707,-23.10156 -0.40414,-5.81977 -4.55575,-11.11619 -9.33339,-15.98309 8.26853,-4.08394 13.99307,-8.62732 18.99745,-13.2923 -13.06951,-6.54419 -16.76731,-4.93042 -39.98828,-3.80274 -11.62932,0.56476 -23.54967,-16.85045 -33.90625,-22.0039 -2.04583,-1.01801 -1.16134,-4.78232 0.89648,-5.08203 11.23247,-1.63595 25.4373,-14.24985 35.46289,-12.75 14.76709,2.20909 27.73145,27.82335 44.10352,32.29297 0.99073,-45.22751 -34.72515,-63.506368 -64.45117,-63.869145 z m 64.45117,63.869145 c 2.01141,1.70366 -3.68703,9.46458 -6.56836,11.3457 -3.98473,4.73831 -8.33492,8.88829 -15.50812,13.77109 4.02156,4.46978 6.02354,9.30543 5.84406,15.5043 21.899,-0.30047 45.11024,4.56756 63.83203,11.44922 -11.43615,-9.59496 -23.056,-23.75583 -47.56641,-26.86524 24.0758,2.29773 36.94297,12.94482 56.70508,27.60157 -7.36455,-24.95869 -33.5447,-41.08958 -56.73828,-52.80664 z M 87.325488,398.95598 c -2.304694,14.56857 -3.082809,26.7269 -1.412109,35.64063 C 160.15274,392.4811 288.81837,309.26697 280.89971,234.70989 277.77947,205.33177 242.52556,189.1341 223.37822,181.88958 184.3027,181.79558 104.31281,264.46351 87.325488,398.95598 Z m 270.617192,-256.5 c 1.47399,-0.0328 2.93912,0.74911 3.81054,2.20117 l 0.41211,0.67774 -0.71875,0.50391 c -1.95841,1.36586 -4.59482,0.73339 -5.88672,-1.41211 l -0.4707,-0.79102 0.61523,-0.43555 c 0.69255,-0.48501 1.46618,-0.72695 2.23829,-0.74414 z"
     sodipodi:nodetypes="sscsccccccccsscsscsscsscccccsscsscsscsscccsccccsssccsccccccccccsccsccccccs" /></g><g
   inkscape:groupmode="layer"
   id="layer3"
   inkscape:label="eye"
   transform="translate(-11.820588,-70.401636)"
   style="display:inline"><path
     id="path3"
     style="font-variation-settings:normal;opacity:1;vector-effect:non-scaling-stroke;fill:#ffffff;fill-opacity:1;fill-rule:evenodd;stroke:none;stroke-width:0.999999;stroke-linecap:butt;stroke-linejoin:miter;stroke-miterlimit:4;stroke-dasharray:none;stroke-dashoffset:0;stroke-opacity:1;-inkscape-stroke:hairline;stop-color:#000000;stop-opacity:1"
     d="m 312.07066,79.363924 a 14,16 0 0 0 -12.00718,15.837229 14,16 0 0 0 13.99862,16.000987 14,16 0 0 0 14.00043,-16.001815 14,16 0 0 0 -14.00041,-15.998868 14,16 0 0 0 -1.99146,0.162467 z m 0.56992,3.959536 a 10,12 0 0 1 1.42247,-0.12249 10,12 0 0 1 9.99996,12.000283 10,12 0 0 1 -10.00006,11.999257 10,12 0 0 1 -9.99996,-12.000285 10,12 0 0 1 8.57759,-11.876765 z"
     transform="rotate(5)" /><ellipse
     class="st9"
     cx="294.89789"
     cy="148.84666"
     rx="3.8699999"
     ry="4.21"
     id="ellipse245"
     transform="rotate(-5)" /></g></svg>
